<mxfile host="app.diagrams.net" modified="2023-08-09T11:20:20.431Z" agent="Mozilla/5.0 (Windows NT 10.0; Win64; x64) AppleWebKit/537.36 (KHTML, like Gecko) Chrome/115.0.0.0 Safari/537.36" etag="L94CzRj2MmB51pnxLsaM" version="21.6.7" type="device">
  <diagram name="Page-1" id="j2_sYDGaorIsat1OGRA3">
    <mxGraphModel dx="1185" dy="646" grid="1" gridSize="10" guides="1" tooltips="1" connect="1" arrows="1" fold="1" page="1" pageScale="1" pageWidth="827" pageHeight="1169" background="none" math="0" shadow="0">
      <root>
        <mxCell id="0" />
        <mxCell id="1" parent="0" />
        <mxCell id="85BsBRaEdAMOaMUE68N0-31" value="Server-side Claims Identity Generation" style="swimlane;fillColor=#dae8fc;strokeColor=#6c8ebf;fontSize=16;startSize=30;movable=1;resizable=1;rotatable=1;deletable=1;editable=1;locked=0;connectable=1;" parent="1" vertex="1">
          <mxGeometry x="180" y="20" width="460" height="510" as="geometry" />
        </mxCell>
        <mxCell id="85BsBRaEdAMOaMUE68N0-34" style="edgeStyle=orthogonalEdgeStyle;rounded=0;orthogonalLoop=1;jettySize=auto;html=1;exitX=0.5;exitY=1;exitDx=0;exitDy=0;entryX=0.5;entryY=0;entryDx=0;entryDy=0;" parent="85BsBRaEdAMOaMUE68N0-31" source="85BsBRaEdAMOaMUE68N0-28" target="85BsBRaEdAMOaMUE68N0-33" edge="1">
          <mxGeometry relative="1" as="geometry" />
        </mxCell>
        <mxCell id="85BsBRaEdAMOaMUE68N0-28" value="&lt;font style=&quot;font-size: 14px;&quot;&gt;&lt;b&gt;AppUserClaimsPrincipalFactory &lt;br&gt;&lt;/b&gt;: UserClaimsPrincipalFactory&amp;lt;ApplicationUser, ApplicationRole&amp;gt;&lt;/font&gt;" style="html=1;whiteSpace=wrap;fillColor=#d5e8d4;strokeColor=#82b366;" parent="85BsBRaEdAMOaMUE68N0-31" vertex="1">
          <mxGeometry x="10" y="40" width="440" height="40" as="geometry" />
        </mxCell>
        <mxCell id="85BsBRaEdAMOaMUE68N0-33" value="PermissionsClaimBuilder.BuildFromRoles" style="swimlane;startSize=30;fontSize=14;fillColor=#d5e8d4;strokeColor=#82b366;fontStyle=1" parent="85BsBRaEdAMOaMUE68N0-31" vertex="1">
          <mxGeometry x="10" y="110" width="440" height="390" as="geometry" />
        </mxCell>
        <mxCell id="85BsBRaEdAMOaMUE68N0-45" value="" style="endArrow=classic;html=1;rounded=0;fontSize=11;exitX=1;exitY=0.5;exitDx=0;exitDy=0;entryX=0;entryY=0.5;entryDx=0;entryDy=0;" parent="85BsBRaEdAMOaMUE68N0-33" source="85BsBRaEdAMOaMUE68N0-43" target="85BsBRaEdAMOaMUE68N0-49" edge="1">
          <mxGeometry width="50" height="50" relative="1" as="geometry">
            <mxPoint x="110.5" y="84.58" as="sourcePoint" />
            <mxPoint x="370.5" y="84.58" as="targetPoint" />
          </mxGeometry>
        </mxCell>
        <mxCell id="85BsBRaEdAMOaMUE68N0-46" value="&lt;font style=&quot;font-size: 11px;&quot;&gt;For each&lt;br style=&quot;font-size: 11px;&quot;&gt;find enum properties&lt;br style=&quot;font-size: 11px;&quot;&gt;with PermissionsAttribute&lt;/font&gt;" style="edgeLabel;html=1;align=center;verticalAlign=middle;resizable=0;points=[];labelBorderColor=none;labelBackgroundColor=default;spacingLeft=0;spacingTop=0;spacingRight=0;spacing=0;fontSize=11;" parent="85BsBRaEdAMOaMUE68N0-45" vertex="1" connectable="0">
          <mxGeometry x="0.0139" y="-1" relative="1" as="geometry">
            <mxPoint y="-1" as="offset" />
          </mxGeometry>
        </mxCell>
        <mxCell id="85BsBRaEdAMOaMUE68N0-60" value="" style="endArrow=classic;html=1;rounded=0;fontSize=11;exitX=0.5;exitY=1;exitDx=0;exitDy=0;" parent="85BsBRaEdAMOaMUE68N0-33" source="85BsBRaEdAMOaMUE68N0-49" target="85BsBRaEdAMOaMUE68N0-63" edge="1">
          <mxGeometry width="50" height="50" relative="1" as="geometry">
            <mxPoint x="460.58000000000004" y="140" as="sourcePoint" />
            <mxPoint x="460.5" y="260" as="targetPoint" />
          </mxGeometry>
        </mxCell>
        <mxCell id="85BsBRaEdAMOaMUE68N0-61" value="&lt;font style=&quot;font-size: 11px;&quot;&gt;For each get property value and&lt;br style=&quot;font-size: 11px;&quot;&gt;PermissionsAttribute.UniqueName&lt;br style=&quot;font-size: 11px;&quot;&gt;&lt;br style=&quot;font-size: 11px;&quot;&gt;Value is cached&lt;br style=&quot;font-size: 11px;&quot;&gt;using bitwise operator |=&amp;nbsp;&lt;br style=&quot;font-size: 11px;&quot;&gt;&lt;/font&gt;" style="edgeLabel;html=1;align=center;verticalAlign=middle;resizable=0;points=[];labelBorderColor=none;labelBackgroundColor=default;spacingLeft=0;spacingTop=0;spacingRight=0;spacing=0;fontSize=11;" parent="85BsBRaEdAMOaMUE68N0-60" vertex="1" connectable="0">
          <mxGeometry x="0.0139" y="-1" relative="1" as="geometry">
            <mxPoint y="-1" as="offset" />
          </mxGeometry>
        </mxCell>
        <mxCell id="85BsBRaEdAMOaMUE68N0-70" value="" style="endArrow=none;html=1;rounded=0;endFill=0;startArrow=classic;startFill=1;fontSize=11;exitX=1;exitY=0.5;exitDx=0;exitDy=0;entryX=0;entryY=0.5;entryDx=0;entryDy=0;" parent="85BsBRaEdAMOaMUE68N0-33" source="85BsBRaEdAMOaMUE68N0-75" target="85BsBRaEdAMOaMUE68N0-63" edge="1">
          <mxGeometry width="50" height="50" relative="1" as="geometry">
            <mxPoint x="110.5" y="340" as="sourcePoint" />
            <mxPoint x="370.5" y="340" as="targetPoint" />
          </mxGeometry>
        </mxCell>
        <mxCell id="85BsBRaEdAMOaMUE68N0-71" value="&lt;span style=&quot;font-size: 11px;&quot;&gt;Create new Claim named&lt;br style=&quot;font-size: 11px;&quot;&gt;&lt;/span&gt;&quot;permissions&quot; storing&lt;br style=&quot;font-size: 11px;&quot;&gt;permission-value pairs&lt;br style=&quot;font-size: 11px;&quot;&gt;as JSON string&amp;nbsp;" style="edgeLabel;html=1;align=center;verticalAlign=middle;resizable=0;points=[];labelBorderColor=none;labelBackgroundColor=default;spacingLeft=0;spacingTop=0;spacingRight=0;spacing=0;fontSize=11;" parent="85BsBRaEdAMOaMUE68N0-70" vertex="1" connectable="0">
          <mxGeometry x="0.0139" y="-1" relative="1" as="geometry">
            <mxPoint y="-1" as="offset" />
          </mxGeometry>
        </mxCell>
        <mxCell id="85BsBRaEdAMOaMUE68N0-75" value="&lt;font style=&quot;font-size: 11px;&quot;&gt;IdentityClaim&lt;br style=&quot;font-size: 11px;&quot;&gt;&lt;/font&gt;" style="html=1;whiteSpace=wrap;container=0;fontSize=11;rounded=1;" parent="85BsBRaEdAMOaMUE68N0-33" vertex="1">
          <mxGeometry x="10" y="299.23" width="79.5" height="31.54" as="geometry" />
        </mxCell>
        <mxCell id="85BsBRaEdAMOaMUE68N0-44" value="" style="group;fontSize=11;" parent="85BsBRaEdAMOaMUE68N0-33" vertex="1" connectable="0">
          <mxGeometry x="10" y="40" width="164.69" height="90" as="geometry" />
        </mxCell>
        <mxCell id="85BsBRaEdAMOaMUE68N0-43" value="" style="html=1;whiteSpace=wrap;dashed=1;rounded=1;fontSize=11;" parent="85BsBRaEdAMOaMUE68N0-44" vertex="1">
          <mxGeometry width="80" height="90" as="geometry" />
        </mxCell>
        <mxCell id="85BsBRaEdAMOaMUE68N0-41" value="..." style="html=1;whiteSpace=wrap;fontSize=11;" parent="85BsBRaEdAMOaMUE68N0-44" vertex="1">
          <mxGeometry x="10" y="60" width="59.5" height="20" as="geometry" />
        </mxCell>
        <mxCell id="85BsBRaEdAMOaMUE68N0-40" value="Role 2" style="html=1;whiteSpace=wrap;fontSize=11;" parent="85BsBRaEdAMOaMUE68N0-44" vertex="1">
          <mxGeometry x="10" y="35" width="59.5" height="20" as="geometry" />
        </mxCell>
        <mxCell id="85BsBRaEdAMOaMUE68N0-39" value="Role 1" style="html=1;whiteSpace=wrap;fontSize=11;" parent="85BsBRaEdAMOaMUE68N0-44" vertex="1">
          <mxGeometry x="10.25" y="10" width="59.5" height="20" as="geometry" />
        </mxCell>
        <mxCell id="85BsBRaEdAMOaMUE68N0-59" value="" style="group;fontSize=11;" parent="85BsBRaEdAMOaMUE68N0-33" vertex="1" connectable="0">
          <mxGeometry x="270" y="40" width="160" height="90" as="geometry" />
        </mxCell>
        <mxCell id="85BsBRaEdAMOaMUE68N0-49" value="" style="html=1;whiteSpace=wrap;dashed=1;rounded=1;fontSize=11;" parent="85BsBRaEdAMOaMUE68N0-59" vertex="1">
          <mxGeometry width="160" height="90" as="geometry" />
        </mxCell>
        <mxCell id="85BsBRaEdAMOaMUE68N0-52" value="&lt;font style=&quot;font-size: 11px;&quot;&gt;Feature1_Permissions&lt;/font&gt;" style="html=1;whiteSpace=wrap;fontSize=11;" parent="85BsBRaEdAMOaMUE68N0-59" vertex="1">
          <mxGeometry x="15.310000000000002" y="10" width="134.69" height="20" as="geometry" />
        </mxCell>
        <mxCell id="85BsBRaEdAMOaMUE68N0-57" value="&lt;font style=&quot;font-size: 11px;&quot;&gt;Feature2_Permissions&lt;/font&gt;" style="html=1;whiteSpace=wrap;fontSize=11;" parent="85BsBRaEdAMOaMUE68N0-59" vertex="1">
          <mxGeometry x="15.310000000000002" y="35" width="134.69" height="20" as="geometry" />
        </mxCell>
        <mxCell id="85BsBRaEdAMOaMUE68N0-58" value="&lt;font style=&quot;font-size: 11px;&quot;&gt;...&lt;/font&gt;" style="html=1;whiteSpace=wrap;fontSize=11;" parent="85BsBRaEdAMOaMUE68N0-59" vertex="1">
          <mxGeometry x="15" y="60" width="134.69" height="20" as="geometry" />
        </mxCell>
        <mxCell id="85BsBRaEdAMOaMUE68N0-152" value="" style="group" parent="85BsBRaEdAMOaMUE68N0-33" vertex="1" connectable="0">
          <mxGeometry x="270" y="250" width="160" height="130" as="geometry" />
        </mxCell>
        <mxCell id="85BsBRaEdAMOaMUE68N0-63" value="" style="html=1;whiteSpace=wrap;dashed=1;rounded=1;fontSize=11;" parent="85BsBRaEdAMOaMUE68N0-152" vertex="1">
          <mxGeometry width="160" height="130" as="geometry" />
        </mxCell>
        <mxCell id="85BsBRaEdAMOaMUE68N0-64" value="&lt;font style=&quot;font-size: 11px;&quot;&gt;Feature1_Permissions&lt;br style=&quot;font-size: 11px;&quot;&gt;3&lt;br style=&quot;font-size: 11px;&quot;&gt;&lt;/font&gt;" style="html=1;whiteSpace=wrap;fontSize=11;" parent="85BsBRaEdAMOaMUE68N0-152" vertex="1">
          <mxGeometry x="15.310000000000002" y="10.769230769230774" width="134.69" height="43.07692307692307" as="geometry" />
        </mxCell>
        <mxCell id="85BsBRaEdAMOaMUE68N0-65" value="Feature2_Permissions&lt;br style=&quot;border-color: var(--border-color); font-size: 11px;&quot;&gt;&lt;span style=&quot;font-size: 11px;&quot;&gt;5&lt;/span&gt;" style="html=1;whiteSpace=wrap;fontSize=11;" parent="85BsBRaEdAMOaMUE68N0-152" vertex="1">
          <mxGeometry x="15.310000000000002" y="60" width="134.69" height="35.38" as="geometry" />
        </mxCell>
        <mxCell id="85BsBRaEdAMOaMUE68N0-66" value="&lt;font style=&quot;font-size: 11px;&quot;&gt;...&lt;/font&gt;" style="html=1;whiteSpace=wrap;fontSize=11;" parent="85BsBRaEdAMOaMUE68N0-152" vertex="1">
          <mxGeometry x="15.310000000000002" y="100.00307692307695" width="134.69" height="21.538461538461537" as="geometry" />
        </mxCell>
        <mxCell id="85BsBRaEdAMOaMUE68N0-78" value="Server-side Authorization" style="swimlane;fillColor=#dae8fc;strokeColor=#6c8ebf;fontSize=16;startSize=30;" parent="1" vertex="1">
          <mxGeometry x="180" y="1200" width="460" height="800" as="geometry" />
        </mxCell>
        <mxCell id="85BsBRaEdAMOaMUE68N0-157" style="edgeStyle=orthogonalEdgeStyle;rounded=0;orthogonalLoop=1;jettySize=auto;html=1;exitX=0.5;exitY=1;exitDx=0;exitDy=0;entryX=0.5;entryY=0;entryDx=0;entryDy=0;" parent="85BsBRaEdAMOaMUE68N0-78" source="85BsBRaEdAMOaMUE68N0-80" target="85BsBRaEdAMOaMUE68N0-104" edge="1">
          <mxGeometry relative="1" as="geometry">
            <Array as="points">
              <mxPoint x="230" y="100" />
              <mxPoint x="115" y="100" />
            </Array>
          </mxGeometry>
        </mxCell>
        <mxCell id="85BsBRaEdAMOaMUE68N0-158" style="edgeStyle=orthogonalEdgeStyle;rounded=0;orthogonalLoop=1;jettySize=auto;html=1;exitX=0.5;exitY=1;exitDx=0;exitDy=0;" parent="85BsBRaEdAMOaMUE68N0-78" source="85BsBRaEdAMOaMUE68N0-80" target="85BsBRaEdAMOaMUE68N0-137" edge="1">
          <mxGeometry relative="1" as="geometry" />
        </mxCell>
        <mxCell id="85BsBRaEdAMOaMUE68N0-80" value="&lt;b&gt;&lt;font style=&quot;font-size: 14px;&quot;&gt;AuthorizeAttribute&amp;lt;TPermissionType&amp;gt;&lt;/font&gt;&lt;/b&gt;" style="html=1;whiteSpace=wrap;fillColor=#d5e8d4;strokeColor=#82b366;" parent="85BsBRaEdAMOaMUE68N0-78" vertex="1">
          <mxGeometry x="10" y="40" width="440" height="40" as="geometry" />
        </mxCell>
        <mxCell id="85BsBRaEdAMOaMUE68N0-104" value="Permissions.Set" style="swimlane;startSize=30;fontSize=14;fillColor=#d5e8d4;strokeColor=#82b366;fontStyle=1" parent="85BsBRaEdAMOaMUE68N0-78" vertex="1">
          <mxGeometry x="10" y="120" width="210" height="270" as="geometry" />
        </mxCell>
        <mxCell id="85BsBRaEdAMOaMUE68N0-132" value="Enum Value converted to int&lt;br style=&quot;font-size: 11px;&quot;&gt;+&lt;br style=&quot;font-size: 11px;&quot;&gt;find PermissionAttribute.UniqueName" style="rounded=1;whiteSpace=wrap;html=1;fontSize=11;" parent="85BsBRaEdAMOaMUE68N0-104" vertex="1">
          <mxGeometry x="10" y="40" width="190" height="60" as="geometry" />
        </mxCell>
        <mxCell id="85BsBRaEdAMOaMUE68N0-133" value="&lt;font style=&quot;font-size: 9px;&quot;&gt;[UNIQUE_NAME]#[PERMISSION_VALUE]&lt;/font&gt;" style="rounded=1;whiteSpace=wrap;html=1;fontSize=11;" parent="85BsBRaEdAMOaMUE68N0-104" vertex="1">
          <mxGeometry x="10" y="150" width="190" height="40" as="geometry" />
        </mxCell>
        <mxCell id="85BsBRaEdAMOaMUE68N0-134" value="" style="endArrow=classic;html=1;rounded=0;fontSize=11;exitX=0.5;exitY=1;exitDx=0;exitDy=0;" parent="85BsBRaEdAMOaMUE68N0-104" source="85BsBRaEdAMOaMUE68N0-132" target="85BsBRaEdAMOaMUE68N0-133" edge="1">
          <mxGeometry width="50" height="50" relative="1" as="geometry">
            <mxPoint x="130.07999999999998" y="110.00000000000006" as="sourcePoint" />
            <mxPoint x="130" y="170" as="targetPoint" />
          </mxGeometry>
        </mxCell>
        <mxCell id="85BsBRaEdAMOaMUE68N0-135" value="&lt;span style=&quot;font-size: 11px;&quot;&gt;Build string&lt;/span&gt;" style="edgeLabel;html=1;align=center;verticalAlign=middle;resizable=0;points=[];labelBorderColor=none;labelBackgroundColor=default;spacingLeft=0;spacingTop=0;spacingRight=0;spacing=0;fontSize=11;" parent="85BsBRaEdAMOaMUE68N0-134" vertex="1" connectable="0">
          <mxGeometry x="0.0139" y="-1" relative="1" as="geometry">
            <mxPoint y="-1" as="offset" />
          </mxGeometry>
        </mxCell>
        <mxCell id="85BsBRaEdAMOaMUE68N0-142" value="" style="endArrow=classic;html=1;rounded=0;fontSize=11;exitX=0.5;exitY=1;exitDx=0;exitDy=0;entryX=0.5;entryY=0;entryDx=0;entryDy=0;" parent="85BsBRaEdAMOaMUE68N0-104" source="85BsBRaEdAMOaMUE68N0-133" target="85BsBRaEdAMOaMUE68N0-144" edge="1">
          <mxGeometry width="50" height="50" relative="1" as="geometry">
            <mxPoint x="130" y="230" as="sourcePoint" />
            <mxPoint x="130" y="260" as="targetPoint" />
          </mxGeometry>
        </mxCell>
        <mxCell id="85BsBRaEdAMOaMUE68N0-144" value="Set as AuthorizeAttribute.Policy" style="rounded=1;whiteSpace=wrap;html=1;fontSize=11;" parent="85BsBRaEdAMOaMUE68N0-104" vertex="1">
          <mxGeometry x="10" y="220" width="190" height="40" as="geometry" />
        </mxCell>
        <mxCell id="85BsBRaEdAMOaMUE68N0-137" value="Permissions.Get" style="swimlane;startSize=30;fontSize=14;fillColor=#d5e8d4;strokeColor=#82b366;fontStyle=1" parent="85BsBRaEdAMOaMUE68N0-78" vertex="1">
          <mxGeometry x="240" y="120" width="210" height="200" as="geometry" />
        </mxCell>
        <mxCell id="85BsBRaEdAMOaMUE68N0-138" value="Get permission value&lt;br style=&quot;font-size: 11px;&quot;&gt;from the policy string" style="rounded=1;whiteSpace=wrap;html=1;fontSize=11;" parent="85BsBRaEdAMOaMUE68N0-137" vertex="1">
          <mxGeometry x="10" y="40" width="190" height="50" as="geometry" />
        </mxCell>
        <mxCell id="85BsBRaEdAMOaMUE68N0-139" value="Convert to TPermissionType" style="rounded=1;whiteSpace=wrap;html=1;fontSize=11;" parent="85BsBRaEdAMOaMUE68N0-137" vertex="1">
          <mxGeometry x="10" y="150" width="190" height="40" as="geometry" />
        </mxCell>
        <mxCell id="85BsBRaEdAMOaMUE68N0-140" value="" style="endArrow=classic;html=1;rounded=0;fontSize=11;exitX=0.5;exitY=1;exitDx=0;exitDy=0;" parent="85BsBRaEdAMOaMUE68N0-137" source="85BsBRaEdAMOaMUE68N0-138" target="85BsBRaEdAMOaMUE68N0-139" edge="1">
          <mxGeometry width="50" height="50" relative="1" as="geometry">
            <mxPoint x="140.07999999999998" y="100.00000000000006" as="sourcePoint" />
            <mxPoint x="140" y="160" as="targetPoint" />
          </mxGeometry>
        </mxCell>
        <mxCell id="85BsBRaEdAMOaMUE68N0-141" value="&lt;span style=&quot;font-size: 11px;&quot;&gt;Parse as int&lt;/span&gt;" style="edgeLabel;html=1;align=center;verticalAlign=middle;resizable=0;points=[];labelBorderColor=none;labelBackgroundColor=default;spacingLeft=0;spacingTop=0;spacingRight=0;spacing=0;fontSize=11;" parent="85BsBRaEdAMOaMUE68N0-140" vertex="1" connectable="0">
          <mxGeometry x="0.0139" y="-1" relative="1" as="geometry">
            <mxPoint y="-1" as="offset" />
          </mxGeometry>
        </mxCell>
        <mxCell id="85BsBRaEdAMOaMUE68N0-155" style="edgeStyle=orthogonalEdgeStyle;rounded=1;orthogonalLoop=1;jettySize=auto;html=1;exitX=1;exitY=0.5;exitDx=0;exitDy=0;entryX=0;entryY=0.5;entryDx=0;entryDy=0;dashed=1;" parent="85BsBRaEdAMOaMUE68N0-78" source="85BsBRaEdAMOaMUE68N0-144" target="85BsBRaEdAMOaMUE68N0-138" edge="1">
          <mxGeometry relative="1" as="geometry" />
        </mxCell>
        <mxCell id="85BsBRaEdAMOaMUE68N0-159" value="PermissionAuthorization Requirement&#xa;: IAuthorizationRequirement" style="swimlane;startSize=40;fontSize=14;fillColor=#d5e8d4;strokeColor=#82b366;fontStyle=1" parent="85BsBRaEdAMOaMUE68N0-78" vertex="1">
          <mxGeometry x="10" y="400" width="280" height="180" as="geometry" />
        </mxCell>
        <mxCell id="85BsBRaEdAMOaMUE68N0-175" style="edgeStyle=orthogonalEdgeStyle;rounded=0;orthogonalLoop=1;jettySize=auto;html=1;exitX=0.5;exitY=1;exitDx=0;exitDy=0;" parent="85BsBRaEdAMOaMUE68N0-159" source="85BsBRaEdAMOaMUE68N0-161" target="85BsBRaEdAMOaMUE68N0-165" edge="1">
          <mxGeometry relative="1" as="geometry" />
        </mxCell>
        <mxCell id="85BsBRaEdAMOaMUE68N0-176" style="edgeStyle=orthogonalEdgeStyle;rounded=0;orthogonalLoop=1;jettySize=auto;html=1;exitX=0.5;exitY=1;exitDx=0;exitDy=0;entryX=0.5;entryY=0;entryDx=0;entryDy=0;" parent="85BsBRaEdAMOaMUE68N0-159" source="85BsBRaEdAMOaMUE68N0-161" target="85BsBRaEdAMOaMUE68N0-169" edge="1">
          <mxGeometry relative="1" as="geometry" />
        </mxCell>
        <mxCell id="85BsBRaEdAMOaMUE68N0-161" value="&lt;font style=&quot;font-size: 11px;&quot;&gt;[UNIQUE_NAME]#[PERMISSION_VALUE]&lt;/font&gt;" style="rounded=1;whiteSpace=wrap;html=1;fontSize=11;" parent="85BsBRaEdAMOaMUE68N0-159" vertex="1">
          <mxGeometry x="30" y="50" width="220" height="40" as="geometry" />
        </mxCell>
        <mxCell id="85BsBRaEdAMOaMUE68N0-165" value="UniqueName" style="rounded=1;whiteSpace=wrap;html=1;fontSize=11;" parent="85BsBRaEdAMOaMUE68N0-159" vertex="1">
          <mxGeometry x="10" y="130" width="120" height="40" as="geometry" />
        </mxCell>
        <mxCell id="85BsBRaEdAMOaMUE68N0-169" value="Value" style="rounded=1;whiteSpace=wrap;html=1;fontSize=11;" parent="85BsBRaEdAMOaMUE68N0-159" vertex="1">
          <mxGeometry x="150" y="130" width="120" height="40" as="geometry" />
        </mxCell>
        <mxCell id="85BsBRaEdAMOaMUE68N0-166" style="edgeStyle=orthogonalEdgeStyle;rounded=1;orthogonalLoop=1;jettySize=auto;html=1;exitX=1;exitY=0.5;exitDx=0;exitDy=0;entryX=1;entryY=0.5;entryDx=0;entryDy=0;dashed=1;" parent="85BsBRaEdAMOaMUE68N0-78" source="85BsBRaEdAMOaMUE68N0-144" target="85BsBRaEdAMOaMUE68N0-161" edge="1">
          <mxGeometry relative="1" as="geometry">
            <mxPoint x="115" y="370" as="sourcePoint" />
            <mxPoint x="150" y="460" as="targetPoint" />
            <Array as="points">
              <mxPoint x="360" y="360" />
              <mxPoint x="360" y="470" />
            </Array>
          </mxGeometry>
        </mxCell>
        <mxCell id="85BsBRaEdAMOaMUE68N0-167" value="Authorization&lt;br&gt;Policy Provider" style="edgeLabel;html=1;align=center;verticalAlign=middle;resizable=0;points=[];" parent="85BsBRaEdAMOaMUE68N0-166" vertex="1" connectable="0">
          <mxGeometry x="-0.2782" y="-1" relative="1" as="geometry">
            <mxPoint x="20" y="54" as="offset" />
          </mxGeometry>
        </mxCell>
        <mxCell id="85BsBRaEdAMOaMUE68N0-177" value="PermissionAuthorizationRequirementHandler&#xa;: AuthorizationHandler&lt;PermissionAuthorizationRequirement&gt;" style="swimlane;startSize=40;fontSize=14;fillColor=#d5e8d4;strokeColor=#82b366;fontStyle=1" parent="85BsBRaEdAMOaMUE68N0-78" vertex="1">
          <mxGeometry x="10" y="600" width="430" height="190" as="geometry" />
        </mxCell>
        <mxCell id="85BsBRaEdAMOaMUE68N0-183" style="edgeStyle=orthogonalEdgeStyle;rounded=0;orthogonalLoop=1;jettySize=auto;html=1;exitX=1;exitY=0.5;exitDx=0;exitDy=0;entryX=0.013;entryY=0.469;entryDx=0;entryDy=0;entryPerimeter=0;" parent="85BsBRaEdAMOaMUE68N0-177" source="85BsBRaEdAMOaMUE68N0-181" target="85BsBRaEdAMOaMUE68N0-188" edge="1">
          <mxGeometry relative="1" as="geometry">
            <mxPoint x="190" y="94.71000000000001" as="targetPoint" />
            <mxPoint x="30" y="94.71000000000001" as="sourcePoint" />
          </mxGeometry>
        </mxCell>
        <mxCell id="85BsBRaEdAMOaMUE68N0-186" value="Deserialize JSON&lt;br&gt;in &quot;permissions&quot;&lt;br&gt;claim value" style="edgeLabel;html=1;align=center;verticalAlign=middle;resizable=0;points=[];" parent="85BsBRaEdAMOaMUE68N0-183" vertex="1" connectable="0">
          <mxGeometry x="-0.3999" relative="1" as="geometry">
            <mxPoint x="16" as="offset" />
          </mxGeometry>
        </mxCell>
        <mxCell id="85BsBRaEdAMOaMUE68N0-181" value="IdentityClaim" style="rounded=1;whiteSpace=wrap;html=1;fontSize=11;" parent="85BsBRaEdAMOaMUE68N0-177" vertex="1">
          <mxGeometry x="10" y="90" width="80" height="40" as="geometry" />
        </mxCell>
        <mxCell id="85BsBRaEdAMOaMUE68N0-187" value="" style="group" parent="85BsBRaEdAMOaMUE68N0-177" vertex="1" connectable="0">
          <mxGeometry x="200" y="50" width="160" height="130" as="geometry" />
        </mxCell>
        <mxCell id="85BsBRaEdAMOaMUE68N0-188" value="" style="html=1;whiteSpace=wrap;dashed=1;rounded=1;fontSize=11;" parent="85BsBRaEdAMOaMUE68N0-187" vertex="1">
          <mxGeometry width="160" height="130" as="geometry" />
        </mxCell>
        <mxCell id="85BsBRaEdAMOaMUE68N0-189" value="&lt;font style=&quot;font-size: 11px;&quot;&gt;Feature1_Permissions&lt;br style=&quot;font-size: 11px;&quot;&gt;3&lt;br style=&quot;font-size: 11px;&quot;&gt;&lt;/font&gt;" style="html=1;whiteSpace=wrap;fontSize=11;" parent="85BsBRaEdAMOaMUE68N0-187" vertex="1">
          <mxGeometry x="15.310000000000002" y="10.769230769230774" width="134.69" height="43.07692307692307" as="geometry" />
        </mxCell>
        <mxCell id="85BsBRaEdAMOaMUE68N0-190" value="Feature2_Permissions&lt;br style=&quot;border-color: var(--border-color); font-size: 11px;&quot;&gt;&lt;span style=&quot;font-size: 11px;&quot;&gt;5&lt;/span&gt;" style="html=1;whiteSpace=wrap;fontSize=11;" parent="85BsBRaEdAMOaMUE68N0-187" vertex="1">
          <mxGeometry x="15.310000000000002" y="60" width="134.69" height="35.38" as="geometry" />
        </mxCell>
        <mxCell id="85BsBRaEdAMOaMUE68N0-191" value="&lt;font style=&quot;font-size: 11px;&quot;&gt;...&lt;/font&gt;" style="html=1;whiteSpace=wrap;fontSize=11;" parent="85BsBRaEdAMOaMUE68N0-187" vertex="1">
          <mxGeometry x="15.310000000000002" y="100.00307692307695" width="134.69" height="21.538461538461537" as="geometry" />
        </mxCell>
        <mxCell id="85BsBRaEdAMOaMUE68N0-194" style="edgeStyle=orthogonalEdgeStyle;rounded=1;orthogonalLoop=1;jettySize=auto;html=1;exitX=1;exitY=0.5;exitDx=0;exitDy=0;entryX=1;entryY=0.5;entryDx=0;entryDy=0;dashed=1;" parent="85BsBRaEdAMOaMUE68N0-78" source="85BsBRaEdAMOaMUE68N0-169" target="85BsBRaEdAMOaMUE68N0-188" edge="1">
          <mxGeometry relative="1" as="geometry">
            <Array as="points">
              <mxPoint x="450" y="550" />
              <mxPoint x="450" y="715" />
            </Array>
          </mxGeometry>
        </mxCell>
        <mxCell id="85BsBRaEdAMOaMUE68N0-195" style="edgeStyle=orthogonalEdgeStyle;rounded=1;orthogonalLoop=1;jettySize=auto;html=1;exitX=0.5;exitY=1;exitDx=0;exitDy=0;entryX=1;entryY=0.5;entryDx=0;entryDy=0;dashed=1;" parent="85BsBRaEdAMOaMUE68N0-78" source="85BsBRaEdAMOaMUE68N0-165" target="85BsBRaEdAMOaMUE68N0-188" edge="1">
          <mxGeometry relative="1" as="geometry">
            <Array as="points">
              <mxPoint x="80" y="590" />
              <mxPoint x="450" y="590" />
              <mxPoint x="450" y="715" />
            </Array>
          </mxGeometry>
        </mxCell>
        <mxCell id="85BsBRaEdAMOaMUE68N0-196" value="Validation" style="edgeLabel;html=1;align=center;verticalAlign=middle;resizable=0;points=[];" parent="85BsBRaEdAMOaMUE68N0-195" vertex="1" connectable="0">
          <mxGeometry x="0.8689" y="-1" relative="1" as="geometry">
            <mxPoint as="offset" />
          </mxGeometry>
        </mxCell>
      </root>
    </mxGraphModel>
  </diagram>
</mxfile>
